<svg xmlns="http://www.w3.org/2000/svg" viewBox="0 0 1920 768" role="img" aria-label="navario GitHub organization banner">
  <defs>
    <radialGradient id="bg" cx="72%" cy="45%" r="70%">
      <stop offset="0" stop-color="#172235"/>
      <stop offset=".55" stop-color="#0e141e"/>
      <stop offset="1" stop-color="#090d13"/>
    </radialGradient>
    <linearGradient id="blue" x1="0" y1="0" x2="1" y2="1">
      <stop offset="0" stop-color="#2f8cff"/>
      <stop offset="1" stop-color="#0756ff"/>
    </linearGradient>
    <linearGradient id="white" x1="0" y1="0" x2="1" y2="1">
      <stop offset="0" stop-color="#ffffff"/>
      <stop offset="1" stop-color="#d8dde4"/>
    </linearGradient>
    <filter id="shadow" x="-30%" y="-30%" width="160%" height="160%">
      <feDropShadow dx="0" dy="18" stdDeviation="24" flood-color="#000" flood-opacity=".42"/>
    </filter>
    <style>
      .title{font:800 132px Inter,Segoe UI,Arial,sans-serif;letter-spacing:-5px;fill:#f5f7fb}
      .tag{font:400 35px Inter,Segoe UI,Arial,sans-serif;fill:#b8c4d4}
      .label{font:400 24px Inter,Segoe UI,Arial,sans-serif;fill:#c7d2df;text-anchor:middle}
      .stroke{stroke:#aeb9c8;stroke-width:3;fill:none;stroke-linecap:round;stroke-linejoin:round}
      .line{stroke:#126dff;stroke-width:2;opacity:.45;fill:none}
      .panel{fill:#111923;stroke:#303b4b;stroke-width:1.5}
    </style>
  </defs>
  <rect width="1920" height="768" fill="url(#bg)"/>
  <g opacity=".35">
    <path class="line" d="M1040 145h250l45 25h320"/><path class="line" d="M1210 640h160l50-48h290"/><path class="line" d="M1335 290h180l38-34h265"/><path class="line" d="M1450 455h145l42 32h230"/>
    <circle cx="1275" cy="145" r="5" fill="#126dff"/><circle cx="1640" cy="170" r="5" fill="#126dff"/><circle cx="1810" cy="288" r="4" fill="#126dff"/><circle cx="1690" cy="596" r="5" fill="#126dff"/>
  </g>
  <g transform="translate(82 174)" filter="url(#shadow)">
    <rect width="200" height="200" rx="42" fill="url(#white)"/>
    <path d="M45 48l109 67q6 4 6 12v30q0 11-10 5L40 95q-6-4-6-11V55q0-12 11-7z" fill="#111820"/>
    <path d="M42 118l43 26v20H42z" fill="#111820"/>
    <path d="M118 38h36q6 0 6 6v50q0 12-10 5l-32-19z" fill="url(#blue)"/>
  </g>
  <text x="336" y="292" class="title">navario</text>
  <text x="338" y="354" class="tag">Digital Workspaces, E-Commerce Operations</text>
  <text x="338" y="394" class="tag">and Process Automation<tspan fill="#126dff">.</tspan></text>
  <line x1="82" y1="428" x2="282" y2="428" stroke="#126dff" opacity=".55"/>
  <g transform="translate(105 500)">
    <g><path class="stroke" d="M0 16l28-16 28 16v32L28 64 0 48zM28 0v32M0 16l28 16 28-16"/><text x="28" y="96" class="label">E-Commerce</text><text x="28" y="126" class="label">Operations</text></g>
    <g transform="translate(190)"><path class="stroke" d="M0 12h48M0 52h48M8 12v40M40 12v40"/><circle cx="0" cy="12" r="7" class="stroke"/><circle cx="48" cy="12" r="7" class="stroke"/><circle cx="8" cy="52" r="7" class="stroke"/><text x="24" y="96" class="label">Process</text><text x="24" y="126" class="label">Automation</text></g>
    <g transform="translate(390 4)"><path class="stroke" d="M0 10h26l10 10h54v48H0z"/><text x="45" y="92" class="label">Documentation</text></g>
    <g transform="translate(610)"><path class="stroke" d="M0 60V36M18 60V18M36 60V0M54 60V28M-8 60h74"/><text x="28" y="96" class="label">Data &amp;</text><text x="28" y="126" class="label">Reporting</text></g>
    <g transform="translate(800 6)"><circle cx="20" cy="24" r="14" class="stroke"/><circle cx="50" cy="24" r="14" class="stroke"/><path class="stroke" d="M0 66q20-28 40 0M30 66q20-28 40 0"/><text x="35" y="90" class="label">Collaboration</text></g>
  </g>
  <g transform="translate(1050 170)" filter="url(#shadow)">
    <rect x="260" y="0" width="420" height="275" rx="20" class="panel"/>
    <rect x="288" y="32" width="72" height="216" rx="10" fill="#0c121b" stroke="#263142"/>
    <rect x="386" y="38" width="250" height="18" rx="9" fill="#202b3a"/>
    <circle cx="608" cy="47" r="4" fill="#126dff"/><circle cx="630" cy="47" r="4" fill="#126dff"/>
    <g fill="#126dff"><circle cx="398" cy="92" r="5"/><circle cx="398" cy="128" r="5"/><circle cx="398" cy="164" r="5"/><circle cx="398" cy="200" r="5"/></g>
    <g stroke="#3b4757" stroke-width="6" stroke-linecap="round"><line x1="416" y1="92" x2="574" y2="92"/><line x1="416" y1="128" x2="620" y2="128"/><line x1="416" y1="164" x2="560" y2="164"/><line x1="416" y1="200" x2="605" y2="200"/></g>
    <rect x="545" y="106" width="100" height="92" rx="12" fill="#151d29" stroke="#293545"/>
    <path d="M565 168h18v-28h18v28h18v-46" stroke="#126dff" stroke-width="3" fill="none" stroke-linecap="round"/>
    <g transform="translate(195 300) rotate(3)"><rect width="340" height="190" rx="18" class="panel"/><rect x="24" y="24" width="292" height="126" rx="10" fill="#080d14" stroke="#263142"/><g stroke-width="4" stroke-linecap="round"><line x1="50" y1="54" x2="168" y2="54" stroke="#126dff"/><line x1="50" y1="80" x2="222" y2="80" stroke="#354253"/><line x1="50" y1="106" x2="190" y2="106" stroke="#126dff"/><line x1="50" y1="132" x2="258" y2="132" stroke="#354253"/></g><path d="M-18 190h376l38 58H-56z" fill="#0d131c" stroke="#2d394a"/></g>
    <g transform="translate(740 350)"><rect width="130" height="180" rx="12" class="panel"/><path d="M25 125l22-30 24 20 34-54" stroke="#126dff" stroke-width="4" fill="none"/><g stroke="#3b4757"><line x1="22" y1="145" x2="108" y2="145"/><line x1="22" y1="105" x2="108" y2="105"/><line x1="22" y1="65" x2="108" y2="65"/></g></g>
    <g transform="translate(900 300)"><rect width="58" height="250" rx="8" class="panel"/><rect x="76" width="58" height="250" rx="8" class="panel"/><rect x="152" width="58" height="250" rx="8" class="panel"/><g fill="#3b4757"><rect x="16" y="28" width="26" height="70"/><rect x="92" y="28" width="26" height="70"/><rect x="168" y="28" width="26" height="70"/></g><g stroke="#3b4757"><circle cx="29" cy="205" r="12"/><circle cx="105" cy="205" r="12"/><circle cx="181" cy="205" r="12"/></g></g>
    <g transform="translate(58 48)"><rect width="78" height="78" rx="14" class="panel"/><path d="M24 28h32v28H24zM24 28l16 13 16-13" stroke="#126dff" stroke-width="4" fill="none"/></g>
    <g transform="translate(0 180)"><rect width="78" height="78" rx="14" class="panel"/><path d="M24 24h30v38H24zM30 34h18M30 46h18" stroke="#aeb9c8" stroke-width="4" fill="none"/></g>
    <g transform="translate(152 166)"><rect width="78" height="78" rx="14" class="panel"/><path d="M39 18v42M18 39h42" stroke="#aeb9c8" stroke-width="6"/><circle cx="39" cy="39" r="20" stroke="#aeb9c8" stroke-width="5" fill="none"/></g>
    <g transform="translate(20 318)"><rect width="78" height="78" rx="14" class="panel"/><path d="M24 40l12 12 22-26" stroke="#aeb9c8" stroke-width="6" fill="none"/></g>
    <path d="M136 88h74v116h-58v152h64" stroke="#126dff" stroke-width="2.2" fill="none" opacity=".8"/>
  </g>
</svg>
